<svg width="34" height="34" viewBox="0 0 34 34" fill="none" xmlns="http://www.w3.org/2000/svg">
<g clip-path="url(#clip0_394_7554)">
<path d="M9.91663 25.5C8.35829 25.5 7.09746 26.775 7.09746 28.3334C7.09746 29.8917 8.35829 31.1667 9.91663 31.1667C11.475 31.1667 12.75 29.8917 12.75 28.3334C12.75 26.775 11.475 25.5 9.91663 25.5ZM1.41663 2.83337V5.66671H4.24996L9.34996 16.4192L7.43746 19.89C7.21079 20.2867 7.08329 20.7542 7.08329 21.25C7.08329 22.8084 8.35829 24.0834 9.91663 24.0834H26.9166V21.25H10.5116C10.3133 21.25 10.1575 21.0942 10.1575 20.8959L10.2 20.7259L11.475 18.4167H22.0291C23.0916 18.4167 24.0266 17.8359 24.5083 16.9575L29.58 7.76337C29.6933 7.56504 29.75 7.32421 29.75 7.08337C29.75 6.30421 29.1125 5.66671 28.3333 5.66671H7.38079L6.04913 2.83337H1.41663ZM24.0833 25.5C22.525 25.5 21.2641 26.775 21.2641 28.3334C21.2641 29.8917 22.525 31.1667 24.0833 31.1667C25.6416 31.1667 26.9166 29.8917 26.9166 28.3334C26.9166 26.775 25.6416 25.5 24.0833 25.5Z" fill="white"/>
</g>
<defs>
<clipPath id="clip0_394_7554">
<rect width="34" height="34" fill="white"/>
</clipPath>
</defs>
</svg>
