<svg width="29" height="28" viewBox="0 0 29 28" fill="none" xmlns="http://www.w3.org/2000/svg">
<g clip-path="url(#clip0_2838_4592)">
<path d="M27.2273 11.2955V7.15913C27.2273 6.01129 26.0819 5.09094 24.6819 5.09094H4.31818C2.91818 5.09094 1.78545 6.01129 1.78545 7.15913V11.2955C3.18545 11.2955 4.31818 12.2262 4.31818 13.3637C4.31818 14.5012 3.18545 15.4319 1.77272 15.4319V19.5683C1.77272 20.7058 2.91818 21.6364 4.31818 21.6364H24.6819C26.0819 21.6364 27.2273 20.7058 27.2273 19.5683V15.4319C25.8273 15.4319 24.6819 14.5012 24.6819 13.3637C24.6819 12.2262 25.8273 11.2955 27.2273 11.2955ZM15.7728 19.0512H13.2273V16.983H15.7728V19.0512ZM15.7728 14.3978H13.2273V12.3296H15.7728V14.3978ZM15.7728 9.74436H13.2273V7.67618H15.7728V9.74436Z" fill="white"/>
</g>
<defs>
<clipPath id="clip0_2838_4592">
<rect width="28" height="28" fill="white" transform="translate(0.5)"/>
</clipPath>
</defs>
</svg>
