<svg width="19" height="15" viewBox="0 0 19 15" fill="none" xmlns="http://www.w3.org/2000/svg">
<path d="M16.3668 1.55253C14.7227 0.233636 12.1219 0.0100673 12.0105 0.00202491C11.8379 -0.0124507 11.6733 0.084054 11.6023 0.243287C11.5959 0.252937 11.5394 0.383218 11.4765 0.585877C12.5639 0.769236 13.8999 1.13756 15.1084 1.88547C15.302 2.00449 15.3617 2.25862 15.2423 2.45163C15.1632 2.57869 15.0293 2.64786 14.8905 2.64786C14.8163 2.64786 14.7405 2.62695 14.6727 2.58513C12.5946 1.30001 10.0002 1.23567 9.5 1.23567C8.99983 1.23567 6.40379 1.30001 4.32728 2.58513C4.13366 2.70576 3.87874 2.64625 3.75934 2.45324C3.63833 2.25862 3.69803 2.0061 3.89164 1.88547C5.10012 1.13917 6.43606 0.769236 7.52352 0.587486C7.4606 0.383218 7.40413 0.254545 7.39929 0.243287C7.32668 0.084054 7.16372 -0.0156673 6.98947 0.00202491C6.87814 0.0100673 4.27726 0.233636 2.61056 1.57022C1.74091 2.37282 0 7.06294 0 11.1177C0 11.1901 0.0193614 11.2593 0.0548575 11.322C1.25527 13.4258 4.53218 13.9759 5.27921 14C5.28244 14 5.28728 14 5.29212 14C5.42442 14 5.54866 13.9373 5.6261 13.8311L6.3812 12.7953C4.34341 12.271 3.30273 11.3799 3.24304 11.3268C3.07201 11.1772 3.05588 10.9167 3.20754 10.7462C3.35759 10.5757 3.61897 10.5596 3.79 10.7092C3.8142 10.7317 5.73098 12.353 9.5 12.353C13.2755 12.353 15.1923 10.7253 15.2116 10.7092C15.3826 10.5612 15.6424 10.5757 15.7941 10.7478C15.9441 10.9183 15.928 11.1772 15.757 11.3268C15.6973 11.3799 14.6566 12.271 12.6188 12.7953L13.3739 13.8311C13.4513 13.9373 13.5756 14 13.7079 14C13.7127 14 13.7176 14 13.7208 14C14.4678 13.9759 17.7447 13.4258 18.9451 11.322C18.9806 11.2593 19 11.1901 19 11.1177C19 7.06294 17.2591 2.37282 16.3668 1.55253ZM6.81522 9.47072C6.01656 9.47072 5.36957 8.73407 5.36957 7.82371C5.36957 6.91336 6.01656 6.1767 6.81522 6.1767C7.61388 6.1767 8.26087 6.91336 8.26087 7.82371C8.26087 8.73407 7.61388 9.47072 6.81522 9.47072ZM12.1848 9.47072C11.3861 9.47072 10.7391 8.73407 10.7391 7.82371C10.7391 6.91336 11.3861 6.1767 12.1848 6.1767C12.9834 6.1767 13.6304 6.91336 13.6304 7.82371C13.6304 8.73407 12.9834 9.47072 12.1848 9.47072Z" fill="white"/>
</svg>
