<svg width="19" height="15" viewBox="0 0 19 15" fill="none" xmlns="http://www.w3.org/2000/svg">
<path fill-rule="evenodd" clip-rule="evenodd" d="M15.6574 0.506886C16.5187 0.144247 17.442 0.872525 17.2899 1.79457L15.4937 12.6853C15.3205 13.7354 14.1672 14.3379 13.2038 13.8146C12.3977 13.3767 11.2016 12.7028 10.1237 11.9984C9.58543 11.6467 7.93726 10.5189 8.13985 9.71607C8.31306 9.02962 11.0838 6.45045 12.6671 4.9166C13.2891 4.31408 13.0058 3.96601 12.2713 4.52076C10.4492 5.89692 7.52387 7.98921 6.55648 8.57805C5.70296 9.09755 5.25732 9.18621 4.72575 9.09755C3.75506 8.93581 2.85512 8.68533 2.12039 8.38077C1.12735 7.9691 1.17572 6.60443 2.11972 6.20701L15.6574 0.506886Z" fill="white"/>
</svg>
