<svg width="15" height="15" viewBox="0 0 15 15" fill="none" xmlns="http://www.w3.org/2000/svg">
<g clip-path="url(#clip0_19146_66356)">
<path d="M8.5558 -0.5C8.27388 -0.5 8.04321 -0.275526 8.04321 -0.00116915C8.04321 -0.00116915 8.02319 9.72596 8.02319 9.77085C8.02319 10.6638 7.19315 11.4174 6.21411 11.4174C5.26582 11.4174 4.49613 10.6684 4.49613 9.74552C4.49613 8.82268 5.26582 8.07463 6.21411 8.07463C6.26024 8.07463 6.30113 8.08036 6.34726 8.08535L6.42435 8.09509C6.56788 8.11504 6.71617 8.07003 6.82381 7.97525C6.93658 7.88048 6.99801 7.74579 6.99801 7.60113V5.50546C6.99801 5.24108 6.78813 5.02159 6.51646 5.00663L6.4654 5.00175C6.38338 4.99677 6.30125 4.99201 6.21411 4.99201C3.52301 4.99201 1.3335 7.12666 1.3335 9.74552C1.3335 12.3644 3.52301 14.5 6.21411 14.5C8.91033 14.5 11.0987 12.3644 11.0987 9.74552V5.26676C11.9599 5.9302 13.0982 6.25896 14.2003 6.1592C14.4668 6.13426 14.6668 5.91964 14.6668 5.66524V3.33574C14.6668 3.07136 14.4558 2.85686 14.1893 2.83691C12.5849 2.72217 11.2939 1.51048 11.1248 -0.0508574C11.0991 -0.305261 10.8786 -0.5 10.6172 -0.5H8.5558Z" fill="white"/>
</g>
<defs>
<clipPath id="clip0_19146_66356">
<rect width="15" height="15" fill="white"/>
</clipPath>
</defs>
</svg>
