<svg width="21" height="15" viewBox="0 0 21 15" fill="none" xmlns="http://www.w3.org/2000/svg">
<path d="M19.4358 2.04075C19.312 1.50075 18.9166 1.06763 18.3887 0.895875C16.9896 0.44025 13.9543 0 10.5 0C7.04565 0 4.0104 0.44025 2.61098 0.895875C2.083 1.06763 1.68765 1.50075 1.56379 2.04075C1.32994 3.06037 1 4.95113 1 7.5C1 10.0489 1.32994 11.9396 1.56415 12.9592C1.68802 13.4992 2.08337 13.9324 2.61135 14.1041C4.0104 14.5597 7.04565 15 10.5 15C13.9543 15 16.9896 14.5597 18.389 14.1041C18.917 13.9324 19.3123 13.4992 19.4362 12.9592C19.6701 11.9396 20 10.0489 20 7.5C20 4.95113 19.6701 3.06037 19.4358 2.04075ZM8.67308 10.5V4.5L14.1016 7.5L8.67308 10.5Z" fill="white"/>
</svg>
