<svg width="80" height="80" viewBox="0 0 80 80" fill="none" xmlns="http://www.w3.org/2000/svg">
<path d="M10.2988 69.7008C10.2988 71.6808 11.6188 73.0008 13.5988 73.0008H36.6989V43.3008H10.2988V69.7008Z" fill="white"/>
<path d="M43.3008 73.0008H66.4007C68.3807 73.0008 69.7007 71.6808 69.7007 69.7008V43.3008H43.3008V73.0008Z" fill="white"/>
<path d="M7 26.7999V33.4C7 35.38 8.31995 36.6999 10.2999 36.6999H36.7V23.5H10.2999C8.31995 23.5 7 24.8199 7 26.7999Z" fill="white"/>
<path d="M69.7007 23.5H43.3008V36.6999H69.7008C71.6808 36.6999 73.0008 35.38 73.0008 33.4V26.7999C73.0008 24.8199 71.6807 23.5 69.7007 23.5Z" fill="white"/>
<path d="M25.4807 20.1998L24.4907 19.2098C23.1708 17.8898 23.1708 15.9098 24.4907 14.5897C25.1508 13.9297 26.1408 13.5997 26.8007 13.5997C27.7907 13.5997 28.4507 13.9297 29.1106 14.5897L34.7207 20.1998H35.7107H43.9606H44.9506L50.5607 14.5899C51.8806 13.2699 53.8606 13.2699 55.1807 14.5899C56.5008 15.9098 56.5007 17.8898 55.1807 19.2099L54.5207 20.1999H62.4407C63.7606 16.5699 62.7706 12.6099 60.1307 9.97C56.1707 6.01 49.9008 6.01 46.2707 9.97L40.0008 15.91L34.0608 9.97C30.1008 6.01 23.8308 6.01 19.8708 9.97C17.2306 12.6099 16.2406 16.5699 17.5607 20.1998H25.4807Z" fill="white"/>
</svg>
